<?xml version="1.0" encoding="UTF-8"?><svg id="a" xmlns="http://www.w3.org/2000/svg" viewBox="0 0 102.42 101.98"><defs><style>.b{fill:#f8c49d;}.c{fill:#0058a9;}.d{fill:#e9ae86;}.e{fill:#90d5df;}.f{fill:#ca9876;}.g{fill:#dfa681;}</style></defs><path class="d" d="M26.92,43.6l-7.12-2.96s2.46-3.61,1.89-7.74c-.57-4.13,6.77,1.8,6.77,1.8l-1.54,8.9Z"/><path class="e" d="M23.93,56.96v7.98h9.65c0,3.84,0,9.98,0,13.61,0,2.6,.68,3.26,3.33,3.3,5.16,.07,5.25-.02,5.25-5.05,0-3.59,.02-9.68,0-13.27-.03-4.31-2.72-7.05-7.06-7.2-1.67-.06-3.34,0-5.29,0l-5.88,.63Z"/><path class="e" d="M22.91,64.96s-7.74-1.21-6.9-7.52c.84-6.31,6.04-6.63,6.04-6.63l7.77,5.52v6.94l-1.93,1.69h-4.98Z"/><path class="b" d="M26.88,37.31c3.75-.37,6.54-3.72,6.21-7.48-.33-3.89-3.67-6.67-7.55-6.29-3.82,.38-6.54,3.64-6.21,7.44,.34,3.87,3.72,6.71,7.55,6.33"/><path class="c" d="M16,56.49s.25-.07,.69-.08c7.87-.11,9.61,.05,14.82-.1-2.36,0-1.7-5.88-1.7-5.88,0-2.91,.02-2.57,0-5.48-.04-3.86-3.33-3.44-6.96-7.02-3.04-2.99-6.8,3.06-6.83,6.9-.04,4.27-.03,6.05,0,10.32"/><path class="c" d="M65.61,51.12h-29.64c-.79,0-1.43-.64-1.43-1.43s.64-1.43,1.43-1.43h29.64c.79,0,1.43,.64,1.43,1.43s-.64,1.43-1.43,1.43"/><path class="b" d="M37.99,48.24c-1.37,0-2.55-1.04-2.69-2.43-.15-1.49,.93-2.82,2.42-2.97,1.07-.11,1.81-.26,1.82-.26,1.46-.29,2.89,.65,3.19,2.12,.3,1.46-.65,2.89-2.11,3.19-.04,0-.98,.2-2.34,.34-.1,.01-.19,.01-.28,.01"/><path class="c" d="M35.4,48.38c-1.48,0-3.08-.13-4.58-.53-4.07-1.08-8.95-4.05-11.49-5.73l-.11-.08,2.86-4.6s.11,.07,.23,.15c3.86,2.54,7.47,4.37,9.91,5.02,1.38,.37,3.34,.44,5.51,.22l.56,5.39c-.83,.09-1.82,.15-2.88,.15"/><path class="f" d="M76.49,43.6l7.12-2.96s-2.46-3.61-1.89-7.74c.57-4.13-6.77,1.8-6.77,1.8l1.54,8.9Z"/><path class="c" d="M73.6,56.33c-1.95,0-3.62-.05-5.29,0-4.34,.14-7.02,2.88-7.06,7.2-.03,3.59,0,9.68,0,13.27,0,5.03,.09,5.12,5.25,5.05,2.65-.04,3.32-.7,3.33-3.3,0-3.63,0-9.77,0-13.61h9.65v-7.98l-5.88-.63Z"/><path class="c" d="M80.51,64.96s7.74-1.21,6.9-7.52c-.84-6.31-6.04-6.63-6.04-6.63l-7.77,5.52v6.94l1.93,1.69h4.98Z"/><path class="g" d="M82.63,30.05c-.33-3.81-3.57-6.55-7.4-6.25-3.89,.3-6.69,3.61-6.35,7.5,.33,3.76,3.65,6.58,7.41,6.29,3.84-.29,6.67-3.67,6.34-7.54"/><path class="e" d="M87.41,55.16c.02-4.27,.04-6.05,0-10.32-.04-3.84-3.79-9.9-6.83-6.9-3.64,3.58-6.92,3.16-6.96,7.02-.03,2.91,0,2.57,0,5.48,0,0,.67,5.87-1.7,5.88,5.21,.14,6.94,0,14.81,.1,.44,0,.69,.08,.69,.08"/><path class="g" d="M59.08,46.58c1.31,.39,2.74-.27,3.27-1.56,.57-1.38-.09-2.97-1.47-3.54-1-.41-1.66-.76-1.67-.77-1.32-.7-2.96-.2-3.66,1.12-.7,1.32-.2,2.96,1.12,3.66,.04,.02,.88,.47,2.14,.99,.09,.04,.18,.07,.27,.09"/><path class="e" d="M61.53,47.45c-1.02-.3-1.95-.65-2.72-.97l2.07-5.01c2.01,.83,3.91,1.32,5.34,1.36,2.52,.07,6.5-.65,10.93-1.99,.14-.04,.23-.07,.27-.08l1.39,5.24-.7-2.62,.73,2.61-.13,.04c-2.92,.88-8.44,2.34-12.65,2.21-1.54-.04-3.12-.38-4.54-.8"/><rect class="c" x="47.77" y="50.62" width="7.1" height="31.05"/><rect class="c" x="9.36" y="64.96" width="18.53" height="16.15"/><rect class="e" x="74.53" y="64.96" width="18.53" height="16.15"/></svg>