<?xml version="1.0" encoding="UTF-8"?><svg id="a" xmlns="http://www.w3.org/2000/svg" viewBox="0 0 101.09 99.1"><defs><style>.b{fill:#f8c49d;}.c{fill:#0058a9;}.d{fill:#e9ae86;}.e{fill:#fff;}.f{fill:#90d5df;}</style></defs><g><path class="e" d="M41.66,30.59c1.77,.88,14.57,12.36,14.57,12.36l.88-1.77,.44-12.36-5.74-4.85-10.15,6.62Z"/><path class="c" d="M57.12,23.08v-.03c-.66-1.24-1.12-3.23-1.35-5.76-.08-.94-.12-1.8-.13-2.44,.47-.2,.81-.66,.81-1.21v-1.7c.02-.34,0-1.43-.78-2.32-.43-.49-1.23-1.08-2.65-1.12-1.43-.04-2.38-.04-2.83,0-.41,0-1.95,.1-2.95,1.09-.56,.56-.86,1.29-.86,2.11,0,.62,.03,1.91,.03,1.96,.02,.68,.55,1.22,1.22,1.27-.01,.63-.05,1.45-.13,2.35-.22,2.53-.68,4.53-1.33,5.76v.02c-.51,1-1.15,2.47-1.6,4.66v.03c-.17,.83-.31,1.76-.41,2.81-.06,.72,.47,1.35,1.19,1.42,.04,0,.08,0,.11,0,.67,0,1.24-.51,1.3-1.19,.05-.53,.11-1.02,.18-1.48h8.85c.18,0,.26,.02,.53-.02,.19,1.21,.29,2.54,.29,4.23v5.05h2.61v-5.05c0-5.59-1.21-8.65-2.11-10.47"/><path class="b" d="M83.57,23.07l-3.3-5.12v-1.38c.05-.41,.1-1.57-.63-2.52-.37-.48-1.09-1.08-2.36-1.18-2.06-.16-7.28-.03-8.21,0-.51-.08-1.8-.18-2.77,.6-.44,.36-.98,1.04-.98,2.21v2.48l-3.3,4.89h0c-.06,.1-.11,.2-.15,.31,0,.03-.02,.05-.02,.08-.03,.11-.05,.22-.05,.34v14.22c0,.72,13.03,4.07,13.03,4.07,0,.72,.58,1.31,1.31,1.31s7.65-3.99,7.65-4.71v-14.89c0-.25-.07-.5-.21-.71"/><path class="d" d="M80.27,17.95l-3.15,6.46s-.59,18.54,0,18.1c.59-.44,6.66-3.85,6.66-3.85v-14.1s-.14-1.82-1.12-2.9c-.98-1.08-2.39-3.71-2.39-3.71"/><path class="b" d="M39.83,34.85c0,4.23-3.43,7.66-7.66,7.66s-7.66-3.43-7.66-7.66,3.43-7.66,7.66-7.66,7.66,3.43,7.66,7.66"/><path class="f" d="M86.63,38H52.07c-.61,0-1.12,.42-1.26,.98l-3.03-.03c-.15-.55-.65-.96-1.25-.96H21.23c-2.48,0-4.5,2.02-4.5,4.5v3.67c0,2.18,1.56,4.01,3.63,4.41l5.22,27.83c0,.58,.16,2.3,1.56,3.8,1.37,1.45,3.45,2.2,6.19,2.24,4.23,.05,12.41,.07,20.59,.07s16.35-.02,20.59-.07c2.74-.03,4.82-.78,6.19-2.24,1.4-1.5,1.56-3.21,1.56-3.8l5.64-27.93c1.86-.55,3.22-2.27,3.22-4.31v-3.67c0-2.48-2.02-4.5-4.5-4.5"/><path class="c" d="M71.23,75.17c-.72,0-1.31-.58-1.31-1.31v-15.07c0-.72,.59-1.31,1.31-1.31s1.31,.58,1.31,1.31v15.07c0,.72-.59,1.31-1.31,1.31"/><path class="c" d="M62.78,75.17c-.72,0-1.31-.58-1.31-1.31v-15.07c0-.72,.59-1.31,1.31-1.31s1.31,.58,1.31,1.31v15.07c0,.72-.59,1.31-1.31,1.31"/><path class="c" d="M54.33,75.17c-.72,0-1.31-.58-1.31-1.31v-15.07c0-.72,.59-1.31,1.31-1.31s1.31,.58,1.31,1.31v15.07c0,.72-.59,1.31-1.31,1.31"/><path class="c" d="M45.88,75.17c-.72,0-1.31-.58-1.31-1.31v-15.07c0-.72,.59-1.31,1.31-1.31s1.31,.58,1.31,1.31v15.07c0,.72-.59,1.31-1.31,1.31"/><path class="c" d="M37.43,75.17c-.72,0-1.31-.58-1.31-1.31v-15.07c0-.72,.59-1.31,1.31-1.31s1.31,.58,1.31,1.31v15.07c0,.72-.59,1.31-1.31,1.31"/><path class="c" d="M51.87,48.48c-1.01,0-2.01-.38-2.77-1.15L18.33,16.56c-.74-.74-1.15-1.72-1.15-2.77s.41-2.03,1.15-2.77l1.89-1.89c.74-.74,1.72-1.15,2.77-1.15s2.03,.41,2.77,1.15l30.77,30.77c1.53,1.53,1.53,4.01,0,5.54l-1.89,1.89c-.76,.76-1.77,1.15-2.77,1.15"/></g><polygon class="c" points="87.91 50.48 20.37 50.48 21.01 54.02 87.19 54.02 87.91 50.48"/></svg>