<?xml version="1.0" encoding="UTF-8"?><svg id="a" xmlns="http://www.w3.org/2000/svg" viewBox="0 0 102.42 101.98"><defs><style>.b{fill:#f8c49d;}.c{fill:#0058a9;}.d{fill:#e9ae86;}.e{fill:#fff;}.f{fill:#90d5df;}.g{fill:#ca9876;}.h{fill:#dfa681;}</style></defs><path class="g" d="M73.52,27.92c.06-.29,.31-.47,.59-.47v-2.01h-9.29v2.16c.28-.11,.47-.15,.48-.15,.33-.06,.64,.16,.69,.49,.06,.33-.16,.64-.49,.69-.04,0-.33,.07-.69,.29v1.5h9.29v-1.77s-.08-.02-.11-.03c-.33-.06-.54-.38-.47-.71"/><path class="g" d="M73.52,27.92c-.06,.33,.15,.64,.47,.71,.04,0,.08,.02,.11,.03v-1.21c-.28,0-.53,.19-.59,.47"/><path class="g" d="M65.98,27.93c-.05-.33-.37-.55-.69-.49,0,0-.2,.04-.48,.15v1.32c.36-.22,.65-.28,.69-.29,.32-.06,.54-.37,.49-.69"/><path class="g" d="M64.37,30.42c.18-.07,2.21-.77,2.21-.77l7.52,.38s-.8,4.41-2.55,5.89-3.47-.38-3.47-.38l-3.71-5.12Z"/><path class="h" d="M80.2,45.62c.76,2.86,.89,5.14,.98,8.17,.04,1.38-.01,2.77,0,4.15,.01,1.57,.88,2.65,2.22,2.8,2.21,.04,2.37-2.16,2.41-3.38,0-.61-.03-1.1,0-1.59,.3-4.89,.44-9-.76-13.74l-4.84,3.59Z"/><path class="f" d="M77.3,40.69s.24-.4,1.1,1.32c1.8,3.62,2.22,7.15,2.22,7.15l5.4-.84s-.46-6.63-1.58-10.15c-1.29-4.05-5.21-8.28-9.71-8.95,1.43,9.44,2.57,11.47,2.57,11.47"/><path class="b" d="M20.33,46.91c-.81,2.53-1.03,4.57-1.25,7.27-.1,1.24-.12,2.48-.19,3.72-.08,1.41-.91,2.34-2.11,2.41-1.98-.06-2.02-2.04-2-3.14,.03-.54,.07-.99,.07-1.43-.05-4.39,.01-8.08,1.31-12.27l4.17,3.44Z"/><path class="b" d="M22.69,73.83c.31,.13,.42,.45,.44,.94,.13,3.25,.31,6.5,.48,9.75,.17,3.28,.32,6.56,.55,9.84,.12,1.77,1.38,2.87,3.06,2.87,1.67,0,2.91-1.12,3.04-2.9,.23-3.35,.38-6.7,.55-10.05,.16-3.21,.3-6.43,.46-9.64,.01-.27,.12-.54,.19-.8h.27c.06,.26,.16,.5,.17,.75,.23,4.32,.44,8.64,.66,12.96,.12,2.25,.25,4.49,.39,6.74,.11,1.72,1.36,2.96,2.98,2.97,1.74,.02,3.11-1.25,3.2-3.02,.24-4.6,.44-9.19,.65-13.79,.09-1.9,.19-3.8,.24-5.7,.02-.7,.27-.99,.99-.96l-7.91-2.7-9.21,1.16-1.18,1.6Z"/><rect class="d" x="27.53" y="27.05" width="8.07" height="10.69"/><g><path class="f" d="M41.84,47.98l3.86-4.28c0-1.52-1.33-5.74-1.42-5.97-2.42-6.16-5.36-6.27-8.68-7.13-3.75,4.66-6.97,3.59-8.15-.11-1.45,.67-2.78,1.43-3.97,2.3,0,0-2.47,4.44-.78,12.36,.51,.98,.25,2.62,.26,3.15,.07,5.41-1.41,9.12-2.64,15.18-.37,1.83-1.28,9.74-1.63,11.57-.25,1.31,.46,2.17,1.78,2.2,.9,.02,1.81,.06,2.7,0,.26-.02,.46,0,.61,.07l15.44-.06c.97,.04,1.94,.03,2.91,0,1.33-.05,1.98-.8,1.72-2.11-.86-4.3-1.94-10.54-2.83-14.83-.71-3.42-1.43-6.01-1.1-10.56-.17-.85,.28-3.22,.7-3.86,.13-.03,.26-.07,.38-.1,.29,.73,.63,1.45,.86,2.2"/><path class="b" d="M22.69,20.93c-.13,4.2,3.43,7.97,7.65,8.09,4.53,.13,8.19-3.26,8.34-7.73,.15-4.39-3.3-8.13-7.62-8.26-4.62-.13-8.23,3.27-8.37,7.89"/><path class="h" d="M59.62,46.13c-.76,2.86-.89,5.14-.98,8.17-.04,1.38,.01,2.77,0,4.15-.01,1.57-.88,2.65-2.22,2.8-2.21,.04-2.37-2.16-2.41-3.38,0-.61,.03-1.1,0-1.59-.3-4.89-.44-9,.77-13.74l4.84,3.59Z"/><path class="c" d="M60.83,65.59c.44,9.47,.86,18.94,1.28,28.41,.08,1.87,1.17,3.23,2.73,3.4,1.49,.16,2.98-.79,3.33-2.24,.19-.8,.21-1.65,.25-2.47,.28-6.08,.55-12.17,.83-18.25,.02-.37,.07-.74,.25-1.11,.08,1.23,.19,2.46,.24,3.69,.24,5.46,.46,10.93,.69,16.39,.02,.52,.07,1.04,.17,1.55,.31,1.53,1.61,2.54,3.14,2.47,1.47-.06,2.75-1.27,2.86-2.79,.16-2.17,.27-4.35,.37-6.53,.36-7.5,.7-15,1.06-22.5"/><path class="f" d="M78.25,38.35c-1.32,4.18-.2,26.92-.22,27.25h-17.21c-.02-.41,.05-21.98,.24-23.58-.29,.06-.43,.17-.48,.32-.64,1.97-1.13,4.29-1.4,6.31l-4.56-4.95c0-1.88,2.18-10.25,10.18-14.16,.97,2.85,4.65,5.87,4.65,5.87,2.24-.63,4.28-4.32,4.65-6.39,1.48,.33,3.21,1.73,4.15,2.56"/><path class="h" d="M69.43,27.71c4.93-.02,8.85-3.92,8.82-8.79-.03-4.88-3.99-8.81-8.87-8.78-4.81,.03-8.74,4-8.73,8.82,0,4.83,3.96,8.76,8.77,8.75"/></g><rect class="e" x="69.46" y="38.07" width="6.13" height="3.61"/><rect class="e" x="31.85" y="38.06" width="6.13" height="3.61"/><path class="f" d="M24,16.64l-2.89-5.52s7.3-9.76,16.87-1.62c-.95,4.9-1.78,5.86-1.78,5.86,0,0-6.68-1.86-12.19,1.28"/><path class="f" d="M23.47,32.8s-5.92,3.75-7.5,11.29c3.47,2.74,4.36,3.89,4.36,3.89l1.81-3.14,2.8,3.47,1.47-12.39-2.94-3.13Z"/><path class="c" d="M30.52,14.13c-.43,0-.77-.35-.77-.77v-4.12c0-.42,.35-.77,.77-.77s.77,.35,.77,.77v4.12c0,.42-.34,.77-.77,.77"/><path class="c" d="M32.58,12.07h-4.12c-.43,0-.77-.35-.77-.77s.35-.77,.77-.77h4.12c.42,0,.77,.34,.77,.77s-.35,.77-.77,.77"/><path class="c" d="M75.93,34.05c-.08,0-.16,0-.25,.02-.45,.07-.85,.3-1.13,.67-.28,.37-.39,.82-.33,1.27,.06,.45,.3,.85,.67,1.13,.75,.57,1.83,.41,2.39-.34,.57-.75,.41-1.83-.34-2.39-.3-.23-.66-.34-1.02-.34m0,4.62c-.61,0-1.22-.19-1.75-.58-.62-.47-1.03-1.15-1.13-1.92-.11-.77,.09-1.54,.55-2.16,.47-.62,1.15-1.03,1.92-1.13,.77-.11,1.54,.09,2.16,.55,1.28,.96,1.55,2.79,.58,4.08-.57,.76-1.45,1.16-2.33,1.16"/><path class="c" d="M77.12,29.58c-.8-1.32-2.06-1.98-2.9-2.14-.04,0-.08,0-.11,0v1.21c.63,.16,1.46,.69,1.98,1.55,.54,.89,.64,1.98,.29,3.14-.1,.32,.09,.65,.4,.75,.06,.02,.12,.03,.17,.03,.26,0,.5-.17,.58-.43,.57-1.89,.09-3.28-.42-4.11"/><path class="c" d="M62.06,32.83c.02,.32,.28,.57,.6,.57h.03c.33-.02,.59-.3,.57-.63-.12-2.41,.85-3.44,1.55-3.86v-1.32c-.94,.37-2.93,1.58-2.75,5.24"/><path class="c" d="M66.23,39.25c-.22,0-.43-.12-.53-.33-.15-.29-.04-.66,.26-.81l.68-.35c-.53-4.16-2.97-4.29-3.79-4.33-.16,0-.27-.01-.38-.05-.32-.1-.49-.44-.38-.76,.1-.3,.41-.47,.71-.4,.03,0,.07,0,.12,0,3.68,.19,4.73,3.27,4.97,5.82,.02,.24-.11,.48-.32,.59l-1.05,.54c-.09,.05-.18,.07-.28,.07"/><path class="c" d="M62.18,32.43h0Zm-.28,7.82c-.22,0-.42-.12-.53-.31-1.94-3.51-1.68-6.04,.77-7.51,.04-.02,.08-.05,.1-.06,.21-.2,.55-.22,.78-.04,.26,.2,.31,.58,.11,.84-.1,.12-.21,.19-.37,.29-.72,.43-2.59,1.56-.52,5.55l.77-.09c.33-.04,.63,.2,.66,.53s-.2,.63-.53,.66l-1.18,.13s-.05,0-.07,0"/><path class="c" d="M47.22,60.59l-9.14,.85c-1.13,.1-2.11-.79-2.11-1.92v-9.27c0-1.14,.99-2.04,2.13-1.92l9.41,.98c1.01,.1,1.77,.97,1.73,1.99l-.27,7.45c-.03,.97-.78,1.76-1.75,1.85"/><path class="b" d="M41.55,46.13c.77,2.75,.4,4.89,.48,8.17,.03,1.38-.01,2.77,0,4.15,0,1.57,.47,2.65,1.8,2.8,2.21,.04,2.37-2.16,2.41-3.38,0-.61-.03-1.1,0-1.59,.3-4.89-.02-8.57-1.23-13.32l-3.46,3.17Z"/><path class="f" d="M41.84,47.98l4.51-3.24s-1.62-5.95-2.07-7.01c-.45-1.06-3.28,.91-3.28,.91v5.47l.84,3.87Z"/></svg>