<?xml version="1.0" encoding="UTF-8"?><svg id="a" xmlns="http://www.w3.org/2000/svg" viewBox="0 0 102.87 101.09"><defs><style>.b{fill:#f8c49d;}.c{fill:#0058a9;}.d{fill:#fff;}.e{fill:#90d5df;}</style></defs><polygon class="b" points="18.7 47.53 29.48 42.65 31.61 50.44 26.03 54.92 18.7 47.53"/><g><path class="c" d="M67.37,57l-30.27,6.89c-2.78,.63-5.55-1.11-6.18-3.89l-3.42-15.01c-.63-2.78,1.11-5.55,3.89-6.18l30.27-6.89c2.78-.63,5.55,1.11,6.18,3.89l3.42,15.01c.63,2.78-1.11,5.55-3.89,6.18"/><path class="e" d="M92.02,57.45c-.16,0-.32-.03-.47-.11-.52-.26-.74-.89-.48-1.41,2.83-5.73,3.71-12.09,2.53-18.39-.86-4.64-2.75-8.87-5.62-12.58-.36-.46-.27-1.12,.19-1.48,.46-.36,1.12-.27,1.48,.19,3.07,3.98,5.09,8.51,6.02,13.48,1.26,6.75,.32,13.57-2.71,19.71-.18,.37-.56,.59-.95,.59"/><path class="e" d="M87.44,54.72c-.15,0-.31-.03-.45-.1-.53-.25-.75-.88-.5-1.4,2.18-4.6,2.83-9.69,1.9-14.71-.69-3.71-2.19-7.12-4.45-10.11-.35-.46-.26-1.12,.21-1.48,.46-.35,1.12-.26,1.48,.21,2.46,3.26,4.09,6.95,4.84,10.99,1.02,5.46,.3,10.99-2.07,15.99-.18,.38-.56,.6-.95,.6"/><path class="e" d="M82.49,52.22c-.15,0-.3-.03-.44-.1-.53-.24-.76-.87-.51-1.4,1.63-3.51,2.11-7.38,1.4-11.19-.49-2.64-1.51-5.08-3.04-7.25-.33-.48-.22-1.13,.26-1.47s1.13-.22,1.47,.26c1.7,2.43,2.84,5.14,3.39,8.08,.79,4.25,.25,8.56-1.56,12.47-.18,.38-.56,.61-.96,.61"/><path class="e" d="M77.58,49.1c-.13,0-.26-.02-.39-.07-.54-.22-.8-.83-.59-1.37,.89-2.24,1.13-4.69,.69-7.08-.32-1.7-.96-3.29-1.9-4.72-.32-.48-.19-1.14,.3-1.46,.49-.32,1.14-.19,1.46,.3,1.1,1.67,1.85,3.52,2.22,5.5,.52,2.78,.24,5.63-.8,8.24-.16,.41-.56,.66-.98,.66"/><path class="b" d="M30.14,56.57l-1.26-5.52c-.75-3.31-4.1-5.33-7.38-4.46l-1.43,.38c-1.25,.33-2.36,1.06-3.17,2.08l-11.38,14.45c-1.58,2-1.71,4.79-.34,6.94l2.69,4.2c1.84,2.88,4.08,7.74,6.87,5.76l11.29-11.31c7.17-6.69,9.42-8.4,9.3-11.63l-5.19-.9Z"/></g><rect class="e" x="32.48" y="41.11" width="21.96" height="5.4" transform="translate(-8.64 10.74) rotate(-12.83)"/><g><path class="b" d="M19.03,71.16c-1.36,0-2.69-.64-3.53-1.84-1.36-1.95-.89-4.63,1.06-6l23.14-16.21c1.95-1.36,4.63-.89,6,1.06,1.36,1.95,.89,4.63-1.06,6l-23.14,16.21c-.75,.53-1.61,.78-2.47,.78"/><path class="d" d="M66.07,51.43c0,1.53-1.24,2.77-2.77,2.77s-2.77-1.24-2.77-2.77,1.24-2.77,2.77-2.77,2.77,1.24,2.77,2.77"/></g></svg>