<?xml version="1.0" encoding="UTF-8"?><svg id="a" xmlns="http://www.w3.org/2000/svg" viewBox="0 0 102.42 101.09"><defs><style>.b{fill:#f8c49d;}.c{fill:#0058a9;}.d{fill:#90d5df;}</style></defs><path class="b" d="M23.09,53.04l-4.51,11.34,.65,.62-1.07,1.14c-.62,.67-.58,1.71,.08,2.33,.32,.3,.72,.44,1.12,.44,.44,0,.88-.17,1.2-.52l1.06-1.13,.52,.49,11.95-4.75"/><path class="c" d="M34.09,62.99L72.81,24.33c.23,.32,.41,.69,.45,1.05,.01,.17,.06,.69-.7,1.46-3.98,4.06-14.38,13.96-14.48,14.06-.66,.63-.69,1.67-.06,2.33,.32,.34,.76,.51,1.19,.51,.41,0,.82-.15,1.13-.45,.11-.1,10.54-10.03,14.57-14.14,1.5-1.53,1.71-3.05,1.62-4.06-.11-1.28-.75-2.35-1.38-3.11,.92-1,1.1-2.01,1.08-2.7-.01-.48-.13-.91-.28-1.29,.03-.03,.07-.05,.1-.08l1.76-1.77c.67-.56,1.04-1.3,1.06-2.11,.03-1.4-1-2.5-1.4-2.86-.29-.33-1.4-1.58-2.8-2.91-1.01-.96-2.02-1.08-2.69-1.01-1.31,.13-2.17,1.05-2.5,1.46l-1.38,1.33c-.06,.06-.11,.12-.16,.19-.42-.11-.84-.17-1.26-.14-1.19,.07-2.11,.72-2.59,1.31L23.09,53.04"/><path class="d" d="M50.38,34.08c.3,.3,.69,.46,1.08,.46s.76-.14,1.06-.43l3.1-3.02c.6-.58,.61-1.54,.03-2.14-.58-.6-1.54-.61-2.14-.03l-3.1,3.02c-.6,.59-.61,1.54-.03,2.14"/><path class="d" d="M57.79,28.48c.38,0,.77-.15,1.07-.44l8.51-8.43c.59-.59,.6-1.55,.01-2.14-.59-.59-1.55-.6-2.14-.01l-8.51,8.43c-.59,.59-.6,1.55,0,2.14,.3,.3,.68,.45,1.08,.45"/><path class="c" d="M76.94,70.58H29.64c-.91,0-1.65-.74-1.65-1.65s.74-1.64,1.65-1.64h47.29c.91,0,1.64,.74,1.64,1.64s-.74,1.65-1.64,1.65"/><path class="c" d="M76.94,80.16H29.64c-.91,0-1.65-.74-1.65-1.65s.74-1.64,1.65-1.64h47.29c.91,0,1.64,.74,1.64,1.64s-.74,1.65-1.64,1.65"/><path class="c" d="M76.94,89.18H29.64c-.91,0-1.65-.74-1.65-1.65s.74-1.64,1.65-1.64h47.29c.91,0,1.64,.74,1.64,1.64s-.74,1.65-1.64,1.65"/></svg>