<?xml version="1.0" encoding="UTF-8"?><svg id="a" xmlns="http://www.w3.org/2000/svg" viewBox="0 0 102.42 100.65"><defs><style>.b{fill:#f8c49d;}.c{fill:#0058a9;}.d{fill:#fff;}.e{fill:#90d5df;}</style></defs><path class="c" d="M79.26,40.11c-1.53-3.62-3.72-6.86-6.51-9.65-2.79-2.79-6.04-4.98-9.66-6.51-3.74-1.59-7.72-2.39-11.82-2.39s-8.08,.8-11.82,2.39c-3.62,1.53-6.86,3.72-9.65,6.51-2.79,2.79-4.98,6.04-6.51,9.65-1.58,3.75-2.39,7.72-2.39,11.82s.8,8.08,2.39,11.82c1.53,3.62,3.72,6.87,6.51,9.65,2.79,2.79,6.04,4.98,9.65,6.51,3.75,1.58,7.72,2.39,11.82,2.39s8.08-.8,11.82-2.39c3.62-1.53,6.87-3.72,9.66-6.51,2.79-2.79,4.98-6.04,6.51-9.65,1.58-3.74,2.39-7.72,2.39-11.82s-.8-8.08-2.39-11.82"/><path class="e" d="M66.95,36.29c-2.03-2.03-4.4-3.63-7.04-4.75-5.47-2.31-11.79-2.31-17.25,0-2.64,1.11-5.01,2.71-7.04,4.75-2.03,2.03-3.63,4.4-4.75,7.04-1.15,2.73-1.74,5.63-1.74,8.62s.59,5.89,1.74,8.62c1.11,2.64,2.71,5.01,4.75,7.04,2.04,2.03,4.4,3.63,7.04,4.75,2.73,1.15,5.63,1.74,8.62,1.74s5.89-.59,8.63-1.74c2.64-1.12,5.01-2.71,7.04-4.75,2.04-2.04,3.63-4.4,4.75-7.04,1.16-2.73,1.74-5.63,1.74-8.62s-.59-5.89-1.74-8.62c-1.11-2.64-2.71-5.01-4.75-7.04"/><path class="c" d="M95.44,58.62h-6.09s-1.15,18.02-1.15,18.02c0,.01,0,.03,0,.04,0,.1,0,4.74,3.31,4.93h0c1.04,0,1.94-.36,2.6-1.05,1.34-1.39,1.32-3.6,1.31-3.93v-17.92"/><path class="b" d="M95.41,58.71c.02-.09,.03-.18,.02-.27,0-.05-.01-.11-.02-.16V23.71c0-.34-.19-.65-.5-.8-.81-.4-1.74-.34-2.61,.16-3.18,1.82-5.55,9.2-6.35,19.75-.1,1.29-.14,2.87-.03,4.6h0v.05c.12,1.88,.43,3.93,1.04,5.98,.45,2.02,1.75,4.02,2.38,5.17l6.07,.09Z"/><path class="e" d="M17.09,35.86H6.81s.89,4.07,2.55,7.1c.59,6.67-1.59,33.35-1.59,33.35,0,0,1.28,2.81,4.21,3.34,2.93,.52,2.51-1.07,2.4-3.32-.11-2.26,.25-33.36,.25-33.36,0,0,2.75-3.71,2.46-7.1"/><path class="e" d="M11.98,81.46c-3.32,0-4.21-3.24-4.21-5.15,0-.01,0-.03,0-.04l1.59-33.31c.02-.5,.45-.88,.95-.86,.5,.02,.88,.45,.86,.95l-1.59,33.28c0,.16,.02,1.01,.35,1.82,.53,1.34,1.43,1.5,2.05,1.5s1.52-.16,2.05-1.5c.33-.82,.35-1.68,.35-1.83l-1.56-33.29c-.02-.5,.37-.92,.87-.94,.5-.02,.92,.37,.94,.87l1.56,33.31s0,.02,0,.03c0,1.91-.89,5.15-4.21,5.15"/><path class="b" d="M10.3,43.76c-.08,0-.15,0-.23-.03-2.75-.71-4.32-4.1-4.69-10.06-.25-4.19,.18-8.13,.2-8.3,.06-.5,.5-.85,1-.8,.5,.06,.85,.5,.8,1,0,.04-.44,3.97-.19,8.01,.3,4.93,1.49,7.92,3.34,8.4,.48,.12,.77,.62,.65,1.1-.11,.41-.47,.68-.87,.68"/><path class="b" d="M13.94,43.68c-.37,0-.72-.23-.85-.6-.17-.47,.08-.99,.55-1.16,1.75-.63,2.87-3.66,3.14-8.53,.22-3.97-.2-7.77-.2-7.81-.06-.49,.3-.94,.8-1,.49-.06,.94,.3,1,.8,.02,.16,.44,3.98,.21,8.09-.32,5.82-1.78,9.24-4.33,10.16-.1,.04-.2,.05-.31,.05"/><path class="b" d="M13.73,36.31c-.5,0-.9-.4-.9-.9v-9.93c0-.5,.4-.9,.9-.9s.9,.4,.9,.9v9.93c0,.5-.41,.9-.9,.9"/><path class="b" d="M10.17,36.31c-.5,0-.9-.4-.9-.9v-9.93c0-.5,.41-.9,.9-.9s.9,.4,.9,.9v9.93c0,.5-.4,.9-.9,.9"/><path class="b" d="M17.12,36.77H6.81c-.5,0-.9-.4-.9-.9s.4-.9,.9-.9h10.31c.5,0,.9,.4,.9,.9s-1.33,.9-1.83,.9"/><path class="b" d="M5.91,36.31c.14,.04,.35,8.37,6.07,7.7,3.83-.29,4.2-.93,5.68-7.7-3.22,.12-11.76,0-11.76,0"/><path class="d" d="M68.14,42.94s-2.12-2-5.82-1.18c-3.71,.82-10.21,6.34-7.19,14.44,.41,2.75-1.05,9.45-4.89,11.09-1.78,.55-2.88,1.1-1.65,2.06,1.23,.96,2.2,1.1,2.61,2.2,.29,.78,1.24,1.51,2.33,.41,1.1-1.1,1.29-2.89,2.47-4.8,3.92-6.33,5.29-6.72,6.81-7.52,6.27-3.3,10.58-12.08,5.32-16.69"/><path class="c" d="M53.27,40.3c0,.81-.66,1.46-1.46,1.46s-1.46-.66-1.46-1.46,.66-1.46,1.46-1.46,1.46,.66,1.46,1.46"/><path class="c" d="M50.47,42.96c0,.81-.66,1.46-1.46,1.46s-1.46-.66-1.46-1.46,.66-1.46,1.46-1.46,1.46,.66,1.46,1.46"/><path class="c" d="M54.07,43.36c0,.81-.66,1.46-1.46,1.46s-1.46-.66-1.46-1.46,.66-1.46,1.46-1.46,1.46,.66,1.46,1.46"/><path class="c" d="M50.47,40.57c0,.81-.66,1.46-1.46,1.46s-1.46-.66-1.46-1.46,.66-1.46,1.46-1.46,1.46,.66,1.46,1.46"/><path class="c" d="M51.8,37.24c0,.81-.66,1.46-1.46,1.46s-1.46-.66-1.46-1.46,.66-1.46,1.46-1.46,1.46,.66,1.46,1.46"/><path class="c" d="M47.55,38.44c0,.81-.66,1.46-1.46,1.46s-1.46-.66-1.46-1.46,.66-1.46,1.46-1.46,1.46,.66,1.46,1.46"/><path class="c" d="M47.01,41.36c0,.81-.66,1.46-1.46,1.46s-1.46-.66-1.46-1.46,.66-1.46,1.46-1.46,1.46,.66,1.46,1.46"/><path class="c" d="M47.15,44.03c0,.81-.66,1.46-1.46,1.46s-1.46-.66-1.46-1.46,.66-1.46,1.46-1.46,1.46,.66,1.46,1.46"/><path class="c" d="M50.74,45.36c0,.81-.66,1.46-1.46,1.46s-1.46-.66-1.46-1.46,.66-1.46,1.46-1.46,1.46,.66,1.46,1.46"/><path class="c" d="M48.34,42.03c0,.81-.66,1.46-1.46,1.46s-1.46-.66-1.46-1.46,.66-1.46,1.46-1.46,1.46,.66,1.46,1.46"/><path class="c" d="M55.27,41.23c0,.81-.66,1.46-1.46,1.46s-1.46-.66-1.46-1.46,.66-1.46,1.46-1.46,1.46,.66,1.46,1.46"/><path class="c" d="M55.27,37.51c0,.81-.66,1.46-1.46,1.46s-1.46-.66-1.46-1.46,.66-1.46,1.46-1.46,1.46,.66,1.46,1.46"/><path class="c" d="M57.73,39.62c0,.81-.66,1.46-1.46,1.46s-1.46-.66-1.46-1.46,.66-1.46,1.46-1.46,1.46,.66,1.46,1.46"/><path class="c" d="M56.53,43.48c0,.81-.66,1.46-1.46,1.46s-1.46-.66-1.46-1.46,.66-1.46,1.46-1.46,1.46,.66,1.46,1.46"/><path class="c" d="M53.07,46.01c0,.81-.66,1.46-1.46,1.46s-1.46-.66-1.46-1.46,.66-1.46,1.46-1.46,1.46,.66,1.46,1.46"/><path class="c" d="M52.54,42.28c0,.81-.66,1.46-1.46,1.46s-1.46-.66-1.46-1.46,.66-1.46,1.46-1.46,1.46,.66,1.46,1.46"/><path class="c" d="M49.44,47.27c0,.81-.66,1.46-1.46,1.46s-1.46-.66-1.46-1.46,.66-1.46,1.46-1.46,1.46,.66,1.46,1.46"/><path class="c" d="M52.84,48.07c0,.81-.66,1.46-1.46,1.46s-1.46-.66-1.46-1.46,.66-1.46,1.46-1.46,1.46,.66,1.46,1.46"/><path class="c" d="M44.65,46.07c0,.81-.66,1.46-1.46,1.46s-1.46-.66-1.46-1.46,.66-1.46,1.46-1.46,1.46,.66,1.46,1.46"/><path class="c" d="M47.25,49.67c0,.81-.66,1.46-1.46,1.46s-1.46-.66-1.46-1.46,.66-1.46,1.46-1.46,1.46,.66,1.46,1.46"/><path class="c" d="M50.64,48.57c0,.81-.66,1.46-1.46,1.46s-1.46-.66-1.46-1.46,.66-1.46,1.46-1.46,1.46,.66,1.46,1.46"/><path class="c" d="M47.85,47.07c0,.81-.66,1.46-1.46,1.46s-1.46-.66-1.46-1.46,.66-1.46,1.46-1.46,1.46,.66,1.46,1.46"/><path class="c" d="M43.95,42.7c0,.81-.66,1.46-1.46,1.46s-1.46-.66-1.46-1.46,.66-1.46,1.46-1.46,1.46,.66,1.46,1.46"/><path class="c" d="M44.01,39.37c0,.81-.66,1.46-1.46,1.46s-1.46-.66-1.46-1.46,.66-1.46,1.46-1.46,1.46,.66,1.46,1.46"/><path class="c" d="M48.14,53.14s-8.78-3.69-10.08-1.8c-1.3,1.9-4.39,2.79-2.39,5.99,2,3.2,4.69,1.2,4.69,4.89s5.39,2.79,6.59,2c1.2-.8,2-2.2,3.19-3.49,1.2-1.3,1.8-4.39,.8-5.49-1-1.1-.8-3.19-2.79-2.1"/></svg>