<?xml version="1.0" encoding="UTF-8"?><svg id="a" xmlns="http://www.w3.org/2000/svg" viewBox="0 0 101.98 101.54"><defs><style>.b{fill:#f8c49d;}.c{fill:#0058a9;}.d{fill:#90d5df;}.e{fill:#ca9876;}</style></defs><path class="d" d="M38.81,19.58c.1-1.31,.41-2.56,.97-3.75,1.14-2.45,3.06-4.18,4.77-5.33-2.71-1.35-5.71-2.19-8.89-2.4v11.12c1.04,.09,2.1,.21,3.16,.37"/><path class="d" d="M25.28,12.41c1.94,2.17,3.12,4.45,3.51,6.75,1.2-.09,2.41-.13,3.64-.11V8.09c-3.23,.22-6.29,1.09-9.03,2.47,.61,.53,1.26,1.15,1.88,1.85"/><path class="c" d="M35.65,19.21V8.09c-.53-.04-1.07-.06-1.61-.06s-1.08,.02-1.61,.06v10.96c1.06,.01,2.14,.07,3.23,.16"/><path class="c" d="M39.78,15.83c-.56,1.19-.87,2.45-.97,3.75,1.06,.16,2.13,.35,3.2,.58,.03-1.04,.25-2.03,.68-2.95,1.15-2.47,3.47-4.03,4.99-4.83-.99-.7-2.04-1.33-3.14-1.88-1.71,1.15-3.62,2.88-4.77,5.33"/><path class="c" d="M25.57,19.53c1.06-.17,2.13-.29,3.22-.37-.39-2.3-1.57-4.58-3.51-6.75-.63-.7-1.27-1.31-1.88-1.85-1.02,.52-2,1.11-2.93,1.76,1.85,1.46,4.48,4.03,5.11,7.21"/><path class="b" d="M84.44,57.3c-3.44,2.67-6.72,5.29-11.06,6.17-2.24,.45-4.61,1.13-6.68-.85l-2.82-3.27c-.06-.16-.08-.35-.18-.48-2.24-3.19-3.46-6.75-4.07-10.51-1.19-7.22,.12-14.11,1.92-20.97,.74-2.81,2.55-3.97,5.02-4.52,1.3-.29,2.68-.45,4.02-.39,7.37,.34,13.99,3,20.04,7.39,.32,.23,4.3,2.04,2.87,8.66-1.43,6.62-4.16,14.97-9.05,18.76"/><path class="e" d="M80.32,53.33c-.53,0-1.01-.36-1.14-.89-.45-1.86-1.79-3.14-3.97-3.81-3.27-.99-5.86-.72-7.49,.79-.47,.44-1.22,.41-1.65-.07-.44-.47-.41-1.22,.07-1.65,1.59-1.47,4.57-2.88,9.76-1.31,3.77,1.15,5.1,3.62,5.56,5.49,.15,.63-.23,1.26-.86,1.42-.09,.02-.19,.03-.28,.03"/><path class="e" d="M86.02,40.9c-1.17-1.55-2.53-2.78-4.11-3.85-.59-.4-1.42-.05-1.5,.64-.17,1.37,.07,2.64,.98,3.72,1.07,1.27,2.48,1.13,3.99,.95,.72-.09,1.08-.89,.65-1.46"/><path class="e" d="M74.59,34.77c-2.07-.07-4.12-.04-6.19,.64-.56,.19-.73,.87-.3,1.28,1.07,1.02,2.16,1.9,3.79,1.83,1.24-.05,2.64-1.23,3.4-2.64,.27-.49-.11-1.08-.69-1.1"/><path class="e" d="M70.85,77.69c-.7,4.19-1.32,8.25-3.85,11.75-1.31,1.81-2.55,3.87-5.36,3.81l-4.19-.47c-.15-.08-.29-.19-.45-.23-3.71-.8-6.95-2.55-9.88-4.84-5.63-4.4-9.26-10.2-12.52-16.31-1.34-2.51-.8-4.53,.61-6.57,.74-1.07,1.63-2.1,2.63-2.95,5.51-4.64,12.03-7.11,19.27-7.97,.39-.05,4.44-1.38,7.8,4.31,3.36,5.69,6.93,13.5,5.94,19.46"/><path class="b" d="M64.11,80.65c-1.34,3.91-4.4,5.79-8.44,5-3.75-.73-6.42-3.18-8.83-5.87-.67-.75-.2-1.67,.83-1.9,.38-.08,.77-.1,1.16-.15,3.46-.48,6.95-.86,9.88-2.95,1.3-.92,2.55-1.91,3.86-2.82,1.2-.85,2.12-.49,2.26,.94,.14,1.42,.09,2.85,.11,4.12-.3,1.32-.46,2.5-.83,3.61m-8.35,2.67c2.31,.71,4.67-.29,5.66-2.64,.69-1.64,.93-3.45,1.17-5.35-3.64,2.6-7.57,4.19-12.33,4.49,1.74,1.73,3.46,2.87,5.49,3.5"/><path class="b" d="M44.98,73.97c1.67-.88,3.36-1.77,5.09-2.68,.59-.31,.52-1.14-.1-1.38-2.87-1.14-4.97-.07-6.12,3.13-.24,.66,.5,1.26,1.13,.93"/><path class="b" d="M61.77,65.74c-3.09-1.38-5.2-.72-6.52,1.99-.29,.6,.3,1.25,.96,1.06,1.86-.55,3.67-1.09,5.47-1.63,.69-.2,.75-1.12,.09-1.42"/><path class="d" d="M28.83,22.41c-.07,.48-.18,.95-.32,1.43-1.7,5.71-7.76,14.35-12.19,20.66-.36,.51-.71,1.01-1.04,1.49,4.01,5.24,10.16,8.75,17.15,9.22V22.3c-1.22-.02-2.42,.02-3.6,.12"/><path class="d" d="M25.41,22.91s.01-.05,.02-.07c-5.53,.98-10.55,3.25-14.92,6.82-.05,.66-.09,1.32-.09,1.99,0,4.15,1.07,8.04,2.95,11.43,.1-.15,.2-.28,.31-.44,4.05-5.79,10.18-14.53,11.73-19.73"/><path class="d" d="M20.46,12.33c-4.32,3.04-7.58,7.5-9.1,12.7,4.29-2.85,9.06-4.68,14.2-5.5-.62-3.17-3.26-5.75-5.11-7.21"/><path class="d" d="M42.7,17.21c-.43,.92-.65,1.91-.68,2.95,4.75,1.01,9.69,2.71,14.76,5.1-1.48-5.27-4.74-9.8-9.1-12.88-1.52,.8-3.84,2.36-4.99,4.83"/><path class="d" d="M39.87,25.67c-.04-.07-.07-.14-.1-.21-.33-.88-.59-1.74-.75-2.58-1.14-.19-2.26-.33-3.36-.42V55.21c6.37-.43,12.05-3.39,16.04-7.88-.45-3.88-3.57-8.66-6.86-13.68-1.69-2.57-3.43-5.23-4.96-7.98"/><path class="d" d="M42.74,24.2c1.47,2.62,3.16,5.19,4.79,7.68,2.76,4.21,5.41,8.26,6.68,12.07,2.19-3.58,3.45-7.8,3.45-12.3,0-.82-.04-1.63-.12-2.43-5.17-2.62-10.19-4.5-15-5.64,.07,.21,.13,.41,.21,.62"/><path class="c" d="M38.81,19.58c-1.06-.16-2.12-.28-3.16-.37v3.25c1.11,.1,2.23,.24,3.36,.42-.22-1.14-.28-2.24-.2-3.31"/><path class="c" d="M28.79,19.16c.18,1.08,.2,2.17,.03,3.25,1.18-.09,2.38-.13,3.6-.12v-3.25c-1.23-.01-2.44,.02-3.64,.11"/><path class="c" d="M25.57,19.53c-5.14,.81-9.91,2.64-14.2,5.5-.44,1.49-.73,3.04-.86,4.63,4.37-3.57,9.39-5.84,14.92-6.82,.33-1.16,.34-2.26,.14-3.31"/><path class="c" d="M42.02,20.16c-.04,1.08,.14,2.22,.52,3.42,4.81,1.13,9.84,3.01,15,5.64-.14-1.36-.4-2.68-.76-3.96-5.07-2.39-10.01-4.09-14.76-5.1"/><path class="c" d="M32.43,22.3V55.21c.53,.04,1.07,.06,1.61,.06s1.08-.02,1.61-.06V22.46c-1.09-.1-2.17-.15-3.23-.16"/><path class="c" d="M32.43,19.05v3.25c1.06,.01,2.14,.07,3.23,.16v-3.25c-1.09-.09-2.16-.14-3.23-.16"/><path class="c" d="M42.74,24.2c-.08-.21-.14-.42-.21-.62-1.19-.28-2.36-.51-3.52-.7,.17,.84,.42,1.7,.75,2.58,.03,.07,.06,.14,.1,.21,1.54,2.75,3.28,5.41,4.96,7.98,3.29,5.02,6.42,9.79,6.86,13.68,.93-1.05,1.77-2.18,2.51-3.38-1.27-3.81-3.92-7.86-6.68-12.07-1.63-2.49-3.32-5.07-4.79-7.68"/><path class="c" d="M39.02,22.88c1.16,.19,2.33,.42,3.52,.7-.38-1.2-.56-2.34-.52-3.42-1.08-.23-2.15-.42-3.2-.58-.08,1.07-.02,2.17,.2,3.31"/><path class="c" d="M28.5,23.84c.14-.47,.25-.95,.32-1.43-1.15,.09-2.28,.24-3.39,.43l-.02,.07c-1.55,5.21-7.68,13.95-11.74,19.73-.11,.15-.2,.29-.31,.44,.56,1.02,1.2,1.99,1.9,2.91,.34-.48,.69-.98,1.04-1.49,4.42-6.31,10.48-14.96,12.19-20.66"/><path class="c" d="M28.79,19.16c-1.09,.08-2.16,.21-3.22,.37,.21,1.05,.19,2.15-.14,3.31,1.11-.2,2.24-.34,3.39-.43,.17-1.08,.15-2.17-.03-3.25"/></svg>