<?xml version="1.0" encoding="UTF-8"?><svg id="a" xmlns="http://www.w3.org/2000/svg" viewBox="0 0 101.98 100.65"><defs><style>.b{fill:#0058a9;}.c{fill:#fff;}.d{fill:#90d5df;}</style></defs><g><path class="b" d="M56.17,22.19h0m2.49,62.42c-1.76,0-3.3-.32-4.33-.52-.31-.06-.58-.12-.8-.15-1.26-.19-2.12-1.37-1.93-2.63,.19-1.26,1.37-2.13,2.63-1.93,.28,.04,.63,.11,1.02,.19,1.94,.39,4.87,.99,7.18-.62,1.96-1.36,3.27-4.16,3.9-8.32,.12-.76,.26-1.64,.41-2.61,1.74-10.9,7.02-44.05-4.17-46.35-.87-.18-1.56,.19-2.69,2.65-.36,.79-.68,1.47-1.45,1.91-1.11,.62-2.52,.22-3.14-.89-.48-.86-.35-1.89,.24-2.61,.05-.09,.1-.21,.16-.34,.71-1.55,2.88-6.26,7.81-5.24,15.51,3.18,10.3,35.88,7.8,51.6-.15,.96-.29,1.82-.41,2.58-.83,5.46-2.79,9.29-5.82,11.41-2.1,1.47-4.39,1.88-6.41,1.88"/><path class="b" d="M35.04,24.78c-1.2,0-2.17-.97-2.17-2.17,0-1.96-1.64-3.55-3.66-3.55s-3.66,1.59-3.66,3.55c0,1.2-.97,2.17-2.17,2.17s-2.17-.97-2.17-2.17c0-4.35,3.58-7.88,7.99-7.88s7.99,3.53,7.99,7.88c0,1.2-.97,2.17-2.17,2.17"/><path class="d" d="M55.73,24.04c3.18,2.66,4.53,6.16,4.53,10.16,.03,14.97,0,29.94,.02,44.9,0,2.43-1,5.33-4.49,5.33H13.34s-2.06,.42-2.06-5.64c0-14.76,.02-29.52,.02-44.28,0-4.12,1.27-7.72,4.54-10.47H55.73Z"/><path class="d" d="M58.68,25.15s9.18-3.55-16.09-4.33c-11.35-.35-19.27,.06-19.27,.06,0,0-5.1-.23-9.08,4.75,.81,1.44,1.86,2.72,2.34,2.91,.49,.19,24.23-3.07,24.57-3.07s10.38,.81,10.6,1.32c5.64,13.53,6.92-1.64,6.92-1.64"/><path class="b" d="M91.39,78.01l-18.13,2.94c-2.35,.38-4.53-1.28-4.8-3.64l-2.64-23.46c-.26-2.28,1.39-4.34,3.67-4.6l18.23-2.05c2.28-.26,4.34,1.39,4.6,3.67l2.54,22.57c.25,2.21-1.28,4.22-3.47,4.57"/><path class="d" d="M89.73,75.01l-17.56,5.61c-1.67,.53-3.41-.59-3.61-2.34l-2.95-26.19c-.15-1.37,.72-2.64,2.05-3l17.72-4.72c1.64-.44,3.29,.69,3.48,2.38l2.78,25.3c.15,1.32-.66,2.55-1.92,2.95"/><path class="c" d="M73.09,74.31c-.36,0-.7-.23-.82-.6-.15-.45,.1-.94,.56-1.09l13.28-4.29c.45-.15,.94,.1,1.09,.56,.15,.45-.1,.94-.56,1.09l-13.28,4.29c-.09,.03-.18,.04-.26,.04"/><path class="b" d="M20.6,56.28c-.41,0-.74,.33-.74,.74v19.18c0,.41,.33,.74,.74,.74h26.46c.41,0,.74-.33,.74-.74v-19.18c0-.41-.33-.74-.74-.74H20.6Zm26.46,23.37H20.6c-1.9,0-3.45-1.55-3.45-3.45v-19.18c0-1.9,1.55-3.45,3.45-3.45h26.46c1.9,0,3.45,1.55,3.45,3.45v19.18c0,1.9-1.55,3.45-3.45,3.45"/><path class="b" d="M48.67,65.21H18.5c-.75,0-1.36-.61-1.36-1.36s.61-1.36,1.36-1.36h30.17c.75,0,1.36,.61,1.36,1.36s-.61,1.36-1.36,1.36"/><path class="b" d="M43.31,70.18c-.75,0-1.36-.61-1.36-1.36v-4.96c0-.75,.61-1.36,1.36-1.36s1.36,.61,1.36,1.36v4.96c0,.75-.61,1.36-1.36,1.36"/><path class="b" d="M59.02,22.62s-2.88,1.34-2.33,12.81v43.79s-.23,5.21-3.45,5.21h6.24s3.56,.28,3.14-6.69c-.31-5.25,.41-42.31,.41-42.31,0,0,.67-12.28-4.02-12.81"/><path class="b" d="M34.65,49.28c-6.56,0-14.15-.15-23.36-2.11l-.03-3.36c30.06,6.39,46.1-1.21,46.26-1.29l1.29,2.57c-.47,.24-8.55,4.18-24.17,4.18"/></g><rect class="c" x="27.12" y="32.4" width="14.79" height="6.74"/></svg>