<?xml version="1.0" encoding="UTF-8"?><svg id="a" xmlns="http://www.w3.org/2000/svg" viewBox="0 0 102.87 101.98"><defs><style>.b{fill:#0058a9;}.c{fill:#fff;}.d{fill:#90d5df;}</style></defs><path class="b" d="M79.74,19.08h-11.95c-.22-2.84-2.6-5.08-5.49-5.08h-1.45c-.25-1.4-1.48-2.47-2.95-2.47h-7.12c-1.47,0-2.7,1.07-2.95,2.47h-1.45c-2.89,0-5.27,2.24-5.49,5.08h-11.95c-1.6,0-2.91,1.3-2.91,2.9v62.38c0,1.6,1.3,2.9,2.9,2.9h50.8c1.6,0,2.91-1.3,2.91-2.9V21.98c0-1.6-1.3-2.9-2.9-2.9"/><path class="d" d="M73.12,82.28H35.22c-2.21,0-4-1.79-4-4V28.77c0-2.21,1.79-4,4-4h37.9c2.21,0,4,1.79,4,4v49.5c0,2.21-1.79,4-4,4"/><path class="c" d="M52.14,43.37h17.35c.62,0,1.12-.53,1.12-1.18s-.5-1.18-1.12-1.18h-17.35c-.62,0-1.12,.53-1.12,1.18s.5,1.18,1.12,1.18"/><path class="c" d="M69.49,52.82h-17.35c-.62,0-1.12,.53-1.12,1.18s.5,1.18,1.12,1.18h17.35c.62,0,1.12-.53,1.12-1.18s-.5-1.18-1.12-1.18"/><path class="c" d="M69.49,65.36h-17.35c-.62,0-1.12,.53-1.12,1.18s.5,1.17,1.12,1.17h17.35c.62,0,1.12-.53,1.12-1.17s-.5-1.18-1.12-1.18"/><path class="c" d="M40.65,45.36h0Zm4.84-8.02l-4.91,5.63-2.17-2.08c-.21-.2-.49-.3-.78-.31-.29,0-.57,.13-.77,.34-.42,.44-.41,1.13,.03,1.55l3,2.88c.21,.2,.48,.31,.76,.31h.05c.3-.02,.58-.15,.78-.38l5.67-6.5c.19-.22,.29-.5,.27-.8-.02-.29-.15-.56-.37-.75-.46-.4-1.15-.35-1.55,.11"/><path class="c" d="M40.65,57.54m4.84-8.02l-4.91,5.63-2.17-2.08c-.44-.42-1.13-.41-1.55,.03s-.41,1.13,.03,1.55l3,2.88c.2,.2,.47,.31,.76,.31h.05c.3-.02,.58-.15,.78-.38l5.67-6.5c.4-.46,.35-1.15-.11-1.55s-1.15-.35-1.55,.11"/><path class="c" d="M40.65,70.45m4.84-8.02l-4.91,5.63-2.17-2.08c-.44-.42-1.13-.41-1.55,.03-.2,.21-.31,.49-.31,.78,0,.29,.13,.57,.34,.77l3,2.88c.2,.2,.47,.31,.76,.31h.05c.3-.02,.58-.15,.78-.38l5.67-6.5c.4-.46,.35-1.15-.11-1.55s-1.15-.35-1.55,.11"/></svg>