<?xml version="1.0" encoding="UTF-8"?><svg id="a" xmlns="http://www.w3.org/2000/svg" viewBox="0 0 102.87 101.98"><defs><style>.b{fill:#0058a9;}.c{fill:#fff;}.d{fill:#90d5df;}</style></defs><path class="d" d="M44.31,46.75s5.93,3.54,11.26,.8c5.33-2.73,7.87-.8,7.87-.8l-10.39,16.59s-2.68,6.7-10.65,4.07c-3.02-2.17-7.83-6.4-3.68-12.54,3.71-5.49,5.59-8.12,5.59-8.12"/><path class="b" d="M60.1,18.23l18.48,12.92c1.04,.73,1.3,2.18,.59,3.24l-.43,.63c-.71,1.06-2.14,1.33-3.18,.6l-18.48-12.92c-1.04-.73-1.3-2.18-.59-3.24l.43-.63c.71-1.06,2.14-1.33,3.18-.6"/><path class="b" d="M61.25,23.25h-.01c-.3,0-.72,.39-1.18,1.07l-20.84,30.9c-2.39,3.54-1.5,8.4,1.98,10.84,3.48,2.43,8.26,1.53,10.65-2.01l20.84-30.9c.46-.69,.66-1.22,.56-1.51-.16-.47-1.24-.8-2.39-1.14-1.31-.4-2.95-.89-4.39-1.9-1.44-1.01-2.48-2.38-3.32-3.49-.72-.96-1.41-1.86-1.9-1.86m-15.74,45.4c-1.73,0-3.48-.51-5.01-1.58-4.03-2.82-5.06-8.45-2.29-12.55l20.84-30.9c.73-1.08,1.41-1.59,2.15-1.61,1.1-.03,1.9,1.02,2.9,2.34,.82,1.09,1.76,2.32,3.04,3.22,1.29,.9,2.75,1.34,4.05,1.73,1.57,.48,2.82,.85,3.19,1.91,.25,.71,.02,1.54-.7,2.62l-20.84,30.9c-1.72,2.55-4.5,3.91-7.32,3.91"/><path class="b" d="M28.9,84.86c-.12,0-.24-.04-.34-.11-.28-.19-.35-.58-.16-.86l6.4-9.1c.19-.28,.57-.35,.84-.16,.28,.19,.35,.58,.16,.86l-6.4,9.1c-.12,.17-.31,.27-.5,.27"/><path class="b" d="M71.29,28.57c-.12,0-.24-.04-.34-.11l-5.98-4.18c-.28-.19-.35-.58-.16-.86l3.59-5.32-.83-.58c-2.2-1.54-2.76-4.61-1.25-6.85,.73-1.09,1.83-1.82,3.11-2.06,1.27-.24,2.56,.04,3.62,.78l8.98,6.27c1.07,.74,1.78,1.87,2.02,3.16,.24,1.29-.04,2.6-.77,3.69-1.51,2.24-4.53,2.81-6.73,1.27l-1.17-.82-3.59,5.32c-.09,.13-.23,.23-.39,.26-.04,0-.07,.01-.11,.01"/><path class="b" d="M37.96,63.96l-1.26,1.87c-.64,.95-.5,2.2,.27,2.98l-3.37,4.99,3.47,2.42,3.4-5.05c.94,.29,1.99-.05,2.57-.91l1.26-1.87"/><path class="b" d="M37.07,76.84c-.12,0-.24-.04-.34-.11l-3.47-2.43c-.28-.19-.35-.58-.16-.86l3.11-4.61c-.68-.99-.71-2.34-.01-3.37l1.26-1.86c.19-.28,.57-.35,.84-.16s.35,.58,.16,.86l-1.26,1.86c-.46,.69-.38,1.61,.2,2.2,.21,.21,.24,.54,.07,.79l-3.03,4.49,2.47,1.73,3.06-4.54c.15-.22,.42-.32,.68-.24,.71,.22,1.47-.05,1.89-.67l1.26-1.86c.19-.28,.57-.35,.84-.16,.28,.19,.35,.58,.16,.86l-1.26,1.87c-.63,.94-1.72,1.42-2.8,1.26l-3.17,4.71c-.09,.13-.23,.23-.39,.26-.04,0-.07,.01-.11,.01"/><path class="b" d="M40.44,71.85c-.12,0-.24-.04-.34-.11l-3.47-2.43c-.28-.19-.35-.58-.16-.86,.19-.28,.57-.35,.84-.16l3.47,2.43c.28,.19,.35,.58,.16,.86-.12,.17-.31,.27-.5,.27"/><path class="b" d="M51.6,65.66c-.11,0-.23-.03-.33-.1l-4.95-3.46c-.27-.19-.33-.56-.15-.83,.18-.27,.55-.34,.82-.15l4.95,3.46c.27,.19,.33,.56,.15,.83-.11,.17-.3,.26-.48,.26"/><path class="b" d="M54.4,61.52c-.11,0-.23-.03-.33-.1l-4.95-3.46c-.27-.19-.33-.56-.15-.83,.18-.27,.55-.34,.82-.15l4.95,3.46c.27,.19,.33,.56,.15,.83-.11,.17-.3,.26-.48,.26"/><path class="b" d="M57.2,57.37c-.11,0-.23-.03-.33-.1l-4.95-3.46c-.27-.19-.33-.56-.15-.83,.18-.27,.55-.34,.82-.15l4.95,3.46c.27,.19,.34,.56,.15,.83-.11,.17-.3,.26-.48,.26"/><path class="b" d="M59.99,53.22c-.11,0-.23-.03-.33-.1l-4.95-3.46c-.27-.19-.33-.56-.15-.83,.18-.27,.55-.34,.82-.15l4.95,3.46c.27,.19,.33,.56,.15,.83-.11,.17-.3,.26-.48,.26"/><path class="b" d="M62.79,49.08c-.11,0-.23-.03-.33-.1l-4.95-3.46c-.27-.19-.33-.56-.15-.83,.18-.27,.55-.34,.82-.15l4.95,3.46c.27,.19,.33,.56,.15,.83-.11,.17-.3,.26-.48,.26"/><path class="b" d="M65.59,44.93c-.11,0-.23-.03-.33-.1l-4.95-3.46c-.27-.19-.33-.56-.15-.83,.18-.27,.55-.34,.82-.15l4.95,3.46c.27,.19,.33,.56,.15,.83-.11,.17-.3,.26-.48,.26"/><path class="b" d="M68.38,40.78c-.11,0-.23-.03-.33-.1l-4.95-3.46c-.27-.19-.33-.56-.15-.83,.18-.27,.55-.34,.82-.15l4.95,3.46c.27,.19,.34,.56,.15,.83-.11,.17-.3,.26-.48,.26"/><path class="b" d="M71.18,36.64c-.11,0-.23-.03-.33-.1l-4.95-3.46c-.27-.19-.33-.56-.15-.83,.18-.27,.55-.34,.82-.15l4.95,3.46c.27,.19,.33,.56,.15,.83-.11,.17-.3,.26-.48,.26"/><path class="d" d="M26.89,86.78c-5.49,3.54-1.21,6.78-1.18,6.8,2.34,1.7,4.83-1.12,4.43-3.3-.3-1.64-1.61-1.03-2.09-3.12-.11-.5-.73-.66-1.16-.39"/><path class="c" d="M77.56,33.55c-.12,0-.24-.04-.35-.11l-6.06-4.36c-.27-.2-.34-.58-.15-.86,.19-.28,.57-.34,.84-.15l6.06,4.36c.27,.2,.34,.58,.14,.86-.12,.17-.31,.26-.5,.26"/><path class="c" d="M81.48,22.2c-.14,0-.27-.05-.39-.14-.26-.22-.29-.61-.08-.87,.47-.58,.67-1.15,.6-1.7-.14-1-1.13-1.7-1.14-1.7l-3.8-2.74c-.27-.2-.34-.58-.14-.86s.57-.34,.84-.15l3.78,2.73s1.43,.99,1.66,2.54c.13,.91-.16,1.81-.87,2.67-.12,.15-.29,.22-.47,.22"/></svg>