<?xml version="1.0" encoding="UTF-8"?><svg id="a" xmlns="http://www.w3.org/2000/svg" viewBox="0 0 101.54 101.54"><defs><style>.b{fill:#f8c49d;}.c{fill:#0058a9;}.d{fill:#e9ae86;}.e{fill:#fff;}.f{fill:#90d5df;}</style></defs><path class="f" d="M49.49,52.73c-2.83,0-5.58-.56-8.17-1.65-2.5-1.06-4.75-2.57-6.67-4.5-1.93-1.93-3.44-4.17-4.5-6.67-1.1-2.59-1.65-5.34-1.65-8.17s.55-5.58,1.65-8.17c1.06-2.5,2.57-4.75,4.5-6.67,1.93-1.93,4.17-3.44,6.67-4.5,2.59-1.1,5.34-1.65,8.17-1.65s5.58,.55,8.17,1.65c2.5,1.06,4.75,2.57,6.67,4.5,1.93,1.93,3.44,4.17,4.5,6.67,1.1,2.59,1.65,5.34,1.65,8.17s-.55,5.58-1.65,8.17c-1.06,2.5-2.57,4.75-4.5,6.67-1.93,1.93-4.17,3.44-6.67,4.5-2.59,1.1-5.34,1.65-8.17,1.65"/><path class="c" d="M49.49,17.05c-1.98,0-3.91,.39-5.71,1.15-1.75,.74-3.32,1.8-4.67,3.15-1.35,1.35-2.41,2.92-3.15,4.67-.77,1.81-1.15,3.73-1.15,5.71s.39,3.9,1.15,5.72c.74,1.75,1.8,3.32,3.15,4.67,1.35,1.35,2.92,2.41,4.67,3.15,1.81,.77,3.73,1.15,5.71,1.15s3.9-.39,5.71-1.15c1.75-.74,3.32-1.8,4.67-3.15,1.35-1.35,2.41-2.92,3.15-4.67,.77-1.81,1.15-3.73,1.15-5.72s-.39-3.9-1.15-5.71c-.74-1.75-1.8-3.32-3.15-4.67-1.35-1.35-2.92-2.41-4.67-3.15-1.81-.77-3.73-1.15-5.71-1.15"/><path class="e" d="M50.97,38.93h-2.39c-1.98,0-3.59-1.61-3.59-3.59,0-.66,.54-1.2,1.2-1.2s1.2,.54,1.2,1.2,.54,1.2,1.2,1.2h2.39c.66,0,1.2-.54,1.2-1.2v-.67c0-.51-.33-.97-.82-1.13l-3.91-1.3c-1.47-.49-2.45-1.86-2.45-3.41v-.67c0-1.98,1.61-3.59,3.59-3.59h2.39c1.98,0,3.59,1.61,3.59,3.59,0,.66-.54,1.2-1.2,1.2s-1.2-.54-1.2-1.2-.54-1.2-1.2-1.2h-2.39c-.66,0-1.2,.54-1.2,1.2v.67c0,.52,.33,.97,.82,1.14l3.91,1.3c1.47,.49,2.45,1.86,2.45,3.4v.67c0,1.98-1.61,3.59-3.59,3.59"/><path class="e" d="M49.77,26.31c-.66,0-1.2-.54-1.2-1.2v-2.43c0-.66,.54-1.2,1.2-1.2s1.2,.54,1.2,1.2v2.43c0,.66-.54,1.2-1.2,1.2"/><path class="e" d="M49.77,41.8c-.66,0-1.2-.54-1.2-1.2v-2.39c0-.66,.54-1.2,1.2-1.2s1.2,.54,1.2,1.2v2.39c0,.66-.54,1.2-1.2,1.2"/><path class="b" d="M56.48,71.74s-1.13-6.84,2.29-10.99c3.41-4.14,15.51-16.15,15.51-16.15,0,0,1.89-1.97,4.52-.37-.25-3.05-.66-8.13-.66-8.13,0,0-.44-4.06,3.72-4.62,4.16-.57,4.61,6.33,4.61,6.33l.84,10.28s.54,3.81-4.07,8.68c-4.57,5.32-9.13,10.7-9.13,10.7,0,0-1.29,.9-.72,3.7,.57,2.8-14.38,6.29-16.89,.58"/><path class="d" d="M83.47,31.67l1.19,14.58s.58,3.08-1.79,6.09c-2.37,3-11.1,13.04-11.1,13.04,0,0-1.4,1.29-.89,8.05,1.29-.64,2.13-1.22,2.5-2.27-.13-1.01-.37-2.42,1.34-4.43,1.77-2.07,10.22-12.02,10.22-12.02,0,0,2.67-2.9,2.25-7.98-.41-5.08-.8-9.83-.8-9.83,0,0,.14-4.02-2.92-5.23"/><path class="d" d="M78.8,44.23s1.61,2.14-.66,4.71c-2.27,2.57-4.76,5.5-4.76,5.5,0,0-2,1.97-.88,3.19,1.12,1.22,3.61-1.93,3.61-1.93l4.42-5.59s3.06-4.34-1.73-5.88"/><path class="f" d="M56.11,83.23h18.67c1.01,0,1.83-.82,1.83-1.83v-9.1c0-1.01-.82-1.83-1.83-1.83h-18.67c-1.01,0-1.83,.82-1.83,1.83v9.1c0,1.01,.82,1.83,1.83,1.83"/><path class="b" d="M42.05,71.74s1.12-6.84-2.29-10.99c-3.41-4.14-15.51-16.15-15.51-16.15,0,0-1.89-1.97-4.52-.37,.25-3.05,.66-8.13,.66-8.13,0,0,.44-4.06-3.72-4.62-4.16-.57-4.61,6.33-4.61,6.33l-.84,10.28s-.54,3.81,4.07,8.68c4.57,5.32,9.13,10.7,9.13,10.7,0,0,1.29,.9,.72,3.7-.57,2.8,14.38,6.29,16.89,.58"/><path class="d" d="M15.06,31.67l-1.19,14.58s-.58,3.08,1.79,6.09c2.37,3,11.1,13.04,11.1,13.04,0,0,1.4,1.29,.89,8.05-1.29-.64-2.13-1.22-2.5-2.27,.13-1.01,.37-2.42-1.34-4.43-1.77-2.07-10.22-12.02-10.22-12.02,0,0-2.67-2.9-2.25-7.98,.41-5.08,.8-9.83,.8-9.83,0,0-.14-4.02,2.92-5.23"/><path class="d" d="M19.73,44.23s-1.61,2.14,.66,4.71c2.27,2.57,4.76,5.5,4.76,5.5,0,0,2,1.97,.88,3.19-1.12,1.22-3.61-1.93-3.61-1.93l-4.42-5.59s-3.06-4.34,1.73-5.88"/><path class="f" d="M42.42,83.23H23.75c-1.01,0-1.83-.82-1.83-1.83v-9.1c0-1.01,.82-1.83,1.83-1.83h18.67c1.01,0,1.83,.82,1.83,1.83v9.1c0,1.01-.82,1.83-1.83,1.83"/></svg>