<?xml version="1.0" encoding="UTF-8"?><svg id="a" xmlns="http://www.w3.org/2000/svg" viewBox="0 0 102.42 97.1"><defs><style>.b{fill:#0058a9;}.c{fill:#fff;}.d{fill:#90d5df;}</style></defs><g><path class="d" d="M84.58,79.12h-4.03c-.58,0-1.04-.47-1.04-1.04s.47-1.04,1.04-1.04h4.03c.58,0,1.04,.46,1.04,1.04s-.47,1.04-1.04,1.04"/><path class="b" d="M94.05,85.43h-22.99c-2.4,0-4.36-1.96-4.36-4.36V34.01c0-2.41,1.96-4.36,4.36-4.36h22.99c2.41,0,4.36,1.96,4.36,4.36v47.06c0,2.4-1.96,4.36-4.36,4.36"/><path class="b" d="M71.06,29.98c-2.22,0-4.03,1.81-4.03,4.03v47.06c0,2.22,1.81,4.03,4.03,4.03h22.99c2.22,0,4.03-1.81,4.03-4.03V34.01c0-2.22-1.81-4.03-4.03-4.03h-22.99Zm22.99,55.78h-22.99c-2.59,0-4.69-2.1-4.69-4.69V34.01c0-2.59,2.1-4.69,4.69-4.69h22.99c2.59,0,4.69,2.11,4.69,4.69v47.06c0,2.59-2.11,4.69-4.69,4.69"/><path class="c" d="M92.23,83.24h-19.33c-2.38,0-4.32-1.94-4.32-4.32V35.86c0-2.38,1.94-4.33,4.32-4.33h19.33c2.39,0,4.33,1.94,4.33,4.33v43.06c0,2.38-1.94,4.32-4.33,4.32"/><path class="b" d="M84.58,79.12h-4.03c-.58,0-1.04-.47-1.04-1.04s.47-1.04,1.04-1.04h4.03c.58,0,1.04,.46,1.04,1.04s-.47,1.04-1.04,1.04"/><path class="d" d="M80.55,77.7c-.21,0-.38,.17-.38,.38s.17,.38,.38,.38h4.03c.21,0,.38-.17,.38-.38s-.17-.38-.38-.38h-4.03Zm4.03,2.08h-4.03c-.94,0-1.7-.76-1.7-1.7s.76-1.71,1.7-1.71h4.03c.94,0,1.7,.77,1.7,1.71s-.76,1.7-1.7,1.7"/><path class="b" d="M6.06,71.74v7.85c0,2.73,2.21,4.93,4.94,4.93H54.77c2.73,0,4.94-2.21,4.94-4.93v-7.85H6.06Z"/><path class="d" d="M35.42,79.12h-5.08c-.58,0-1.04-.47-1.04-1.04s.47-1.04,1.04-1.04h5.08c.58,0,1.04,.46,1.04,1.04s-.47,1.04-1.04,1.04"/><path class="d" d="M30.34,77.7c-.21,0-.38,.17-.38,.38s.17,.38,.38,.38h5.08c.21,0,.38-.17,.38-.38s-.17-.38-.38-.38h-5.08Zm5.08,2.08h-5.08c-.94,0-1.7-.76-1.7-1.7s.76-1.71,1.7-1.71h5.08c.94,0,1.7,.77,1.7,1.71s-.77,1.7-1.7,1.7"/><path class="d" d="M6.06,71.74V16.24c0-2.73,2.21-4.94,4.94-4.94H54.77c2.73,0,4.94,2.21,4.94,4.94v55.5"/></g><rect class="c" x="8.49" y="15.41" width="48.6" height="56.42"/></svg>