<?xml version="1.0" encoding="UTF-8"?><svg id="a" xmlns="http://www.w3.org/2000/svg" viewBox="0 0 102.42 101.54"><defs><style>.b{fill:#0058a9;}.c{fill:#fff;}.d{fill:#90d5df;}</style></defs><g><path class="d" d="M36.95,35.68L5.69,49.61c-2.07,.92-3.01,3.36-2.09,5.44l10.01,22.48c.92,2.08,3.36,3.01,5.44,2.09l31.26-13.93c2.07-.92,3.01-3.36,2.08-5.44l-10.01-22.48c-.92-2.08-3.36-3.01-5.44-2.09"/><path class="b" d="M35.51,45.72l4.5-2.14,.95,2.13c.56,1.26,0,2.73-1.26,3.29-1.25,.56-2.73,0-3.29-1.26l-.9-2.02Z"/><path class="c" d="M40,43.49l-4.51,2.12-.94-2.13c-.55-1.26,.02-2.73,1.28-3.28,1.26-.55,2.73,.02,3.28,1.28l.89,2.02Z"/><path class="b" d="M41.61,59.27l4.5-2.14,.95,2.13c.56,1.26,0,2.73-1.26,3.29-1.25,.56-2.73,0-3.29-1.26l-.9-2.02Z"/><path class="c" d="M46.1,57.04l-4.51,2.12-.94-2.13c-.55-1.26,.02-2.73,1.28-3.28,1.26-.55,2.73,.02,3.28,1.28l.89,2.02Z"/><path class="b" d="M26.78,49.64l4.5-2.14,.95,2.13c.56,1.26,0,2.73-1.26,3.29-1.25,.56-2.73,0-3.29-1.26l-.9-2.02Z"/><path class="c" d="M31.27,47.41l-4.51,2.12-.94-2.13c-.55-1.26,.02-2.73,1.28-3.28,1.26-.55,2.73,.02,3.28,1.28l.89,2.02Z"/><path class="b" d="M32.89,63.19l4.5-2.14,.95,2.13c.56,1.26,0,2.73-1.26,3.29-1.26,.56-2.73,0-3.29-1.27l-.9-2.02Z"/><path class="c" d="M37.37,60.96l-4.51,2.12-.94-2.13c-.55-1.26,.02-2.73,1.28-3.28,1.26-.55,2.73,.02,3.28,1.28l.89,2.02Z"/><path class="b" d="M18.06,53.56l4.5-2.14,.95,2.13c.56,1.26,0,2.73-1.26,3.29-1.26,.56-2.73,0-3.29-1.26l-.9-2.02Z"/><path class="c" d="M22.54,51.33l-4.51,2.12-.94-2.13c-.55-1.26,.02-2.73,1.28-3.28,1.26-.55,2.73,.02,3.28,1.28l.89,2.02Z"/><path class="b" d="M24.16,67.1l4.5-2.14,.95,2.13c.56,1.26,0,2.73-1.26,3.29-1.25,.56-2.73,0-3.29-1.27l-.9-2.02Z"/><path class="c" d="M28.65,64.88l-4.51,2.12-.94-2.13c-.55-1.26,.02-2.73,1.28-3.28,1.26-.55,2.73,.02,3.28,1.28l.89,2.02Z"/><path class="b" d="M9.33,57.48l4.5-2.14,.95,2.13c.56,1.26,0,2.73-1.26,3.29-1.26,.56-2.73,0-3.29-1.26l-.9-2.02Z"/><path class="c" d="M13.82,55.25l-4.51,2.12-.94-2.13c-.55-1.26,.02-2.73,1.28-3.28,1.26-.55,2.73,.02,3.28,1.28l.89,2.02Z"/><path class="b" d="M15.43,71.02l4.5-2.14,.95,2.13c.56,1.26,0,2.73-1.26,3.29-1.26,.56-2.73,0-3.29-1.26l-.9-2.02Z"/><path class="c" d="M19.92,68.8l-4.51,2.12-.94-2.13c-.55-1.26,.02-2.73,1.28-3.28,1.26-.55,2.73,.02,3.28,1.28l.89,2.02Z"/></g><rect class="b" x="60.11" y="32.15" width="28.54" height="9.17"/><g><path class="d" d="M88.74,34.28h-28.95c-1.12,0-2.03-.91-2.03-2.03v-3.75c0-1.12,.91-2.03,2.03-2.03h28.95c1.12,0,2.03,.91,2.03,2.03v3.75c0,1.12-.91,2.03-2.03,2.03"/><path class="d" d="M88.26,77.7h-27.67c-3.39,0-6.14-2.75-6.14-6.14v-27.67c0-3.39,2.75-6.14,6.14-6.14h27.67c3.39,0,6.14,2.75,6.14,6.14v27.67c0,3.39-2.75,6.14-6.14,6.14"/></g><rect class="c" x="62.95" y="45.03" width="22.84" height="22.84"/></svg>