<?xml version="1.0" encoding="UTF-8"?><svg id="a" xmlns="http://www.w3.org/2000/svg" viewBox="0 0 102.42 101.09"><defs><style>.b{fill:#0058a9;}.c{fill:#fff;}.d{fill:#90d5df;}</style></defs><rect class="d" x="18.87" y="49.09" width="66.28" height="33.49"/><rect class="c" x="43.76" y="57.42" width="17.18" height="25.83"/><g><path class="d" d="M80.47,40.56c-.8,0-1.46-.63-1.46-1.4l-7.6-6.67c0,.77-.65-1.86-1.46-1.86s-1.46-.63-1.46-1.4v-11.35c0-.77,.65-1.4,1.46-1.4h10.51c.8,0,1.46,.63,1.46,1.4v23.45"/><path class="d" d="M94.29,47.58L54.47,14.07c-.63-.54-1.57-.55-2.23-.04L9.25,47.47c-.36,.28-.59,.68-.63,1.12-.05,.44,.08,.88,.37,1.22,.29,.35,.71,.56,1.16,.61,.46,.05,82.58,.07,83,.07,.5,0,.98-.21,1.3-.57,.31-.33,.46-.76,.43-1.21-.03-.44-.24-.85-.59-1.14"/><path class="b" d="M61.15,87.44h-17.65c-.95,0-1.73-.75-1.73-1.66s.78-1.67,1.73-1.67h17.65c.95,0,1.73,.75,1.73,1.67s-.78,1.66-1.73,1.66"/><path class="b" d="M76.68,43.26l-23.33-19.63c-.37-.31-.92-.32-1.31-.02l-25.2,19.6c-.21,.16-.34,.4-.37,.66-.03,.26,.05,.51,.22,.72,.17,.2,.41,.33,.68,.35,.27,.03,48.39,.04,48.63,.04,.29,0,.57-.12,.76-.33,.18-.2,.27-.45,.25-.71-.02-.26-.14-.5-.34-.67"/></g></svg>