<?xml version="1.0" encoding="UTF-8"?><svg id="a" xmlns="http://www.w3.org/2000/svg" viewBox="0 0 102.42 101.98"><defs><style>.b{fill:#f8c49d;}.c{fill:#0058a9;}.d{fill:#e9ae86;}.e{fill:#90d5df;}.f{fill:#ca9876;}.g{fill:#dfa681;}</style></defs><g><path class="g" d="M10.6,71.8c1.75,0,1.74,.67,1.82,2.41,.16,3.18,.33,6.35,.5,9.53,.05,1,.74,1.69,1.65,1.69,.9,0,1.58-.67,1.64-1.69,.18-3.44,.34-6.88,.52-10.31,.01-.27,.04-.55,.27-.84,.05,.16,.13,.32,.14,.48,.18,3.44,.36,6.87,.52,10.31,.06,1.25,.7,2.05,1.68,2.05,1.01,0,1.68-.74,1.74-2.01,.15-3.06,.27-6.12,.41-9.18,.01-.35,.04-.7,.04-1.05,0-.53,.2-1.45,.79-1.39H10.6Z"/><path class="b" d="M21.83,55.37c.86,.24,2.65,.75,3.46,.83,.86,.08,1.32,.17,2.2,.04,.25-.04,1.03-.22,1.29-.26,1.28-.16,1.9-1.14,2.02-2.44,.25-2.66,.94-6.44,1.68-9l-4.32-4.35c-.9,2.95-1.72,7.38-1.76,10.51-.01,.78,0,1.56,0,2.61-.89-.38-1.62-.58-2.23-.98-.18-.12-.91-.57-1.1-.68l-1.23,3.72Z"/><path class="b" d="M49.33,44.24c.72,2.53,1.7,6.74,1.84,9.38,.07,1.31,1.08,2.35,2.26,2.36,1.23,0,2.16-1.05,2.24-2.43,.15-2.85,.64-5.85,1.03-8.67l-3.91-3.69-3.45,3.05Z"/><path class="b" d="M33.38,66.58c.26,.11,.35,.38,.37,.79,.11,2.74,.26,5.48,.4,8.21,.15,2.77,.27,5.53,.47,8.3,.11,1.49,1.17,2.42,2.58,2.41,1.4,0,2.46-.95,2.56-2.45,.19-2.82,.32-5.65,.46-8.47,.14-2.71,.25-5.42,.38-8.13,.01-.23,.1-.45,.16-.68,.08,0,.15,0,.23,0,.05,.21,.13,.42,.14,.63,.19,3.64,.37,7.28,.56,10.92,.1,1.89,.21,3.79,.33,5.68,.09,1.45,1.15,2.49,2.52,2.5,1.46,.01,2.62-1.05,2.69-2.55,.2-3.87,.37-7.75,.55-11.62,.07-1.6,.16-3.2,.2-4.81,.02-.59,.23-.83,.84-.81l-6.67-2.28-7.77,.98-1,1.35Z"/></g><rect class="f" x="14.68" y="47.08" width="4.54" height="6.01"/><rect class="d" x="37.46" y="27.15" width="6.81" height="9.01"/><rect class="f" x="61.36" y="25.79" width="7.84" height="10.38"/><rect class="d" x="86.15" y="47.51" width="5.28" height="6.99"/><g><path class="b" d="M96.51,55.68c1,2.46,1.25,4.31,1.28,6.97v.45c0,.32,0,.64,0,.96,0,.94-.48,1.51-1.27,1.59-.79,.07-1.35-.39-1.52-1.35-.06-.34-.11-.68-.16-1.03v-.62c-.12-.84-.27-2.56-.5-3.4l-.34-1.74,2.46-2.15,.06,.32Z"/><path class="e" d="M83.89,67.62c.14,4.37,.09,8.93,.25,10.73,.17,1.8,.19,3.61,.32,5.41,.08,1.08,.8,1.72,1.75,1.66,.85-.06,1.51-.82,1.56-1.8,.18-3.73,.36-7.46,.55-11.19,0-.19,.05-.39,.08-.58,.08,0,.16,0,.23,.01,.08,1.65,.17,3.3,.25,4.95,.11,2.27,.21,4.54,.33,6.82,.06,1.11,.71,1.79,1.64,1.79,.97,0,1.62-.72,1.68-1.86,.28-5.24,.56-10.7,.84-15.95h-9.48Z"/><path class="g" d="M74.04,43.24c.75,2.41,.88,4.34,.98,6.89,.04,1.16-.01,2.33,0,3.5,.01,1.32,.87,2.24,2.2,2.36,1.04,.1,2.08,.32,3.1,.25,.83-.06,2.2-.47,3.11-.72,0,0-1.38-3.68-1.7-3.48-.33,.21-1.63,.92-2.12,1.1,0-.51-.03-.93,0-1.34,.3-4.12,.44-7.58-.76-11.58l-4.81,3.03Z"/><path class="g" d="M11.8,57.82c-.11,.29-.26,.57-.32,.87-.36,1.88-.68,3.78-1.04,5.66-.18,.92-.7,1.37-1.46,1.32-.78-.05-1.35-.65-1.31-1.55,.08-1.77,.09-3.57,.37-5.31,.33-2.06,1.18-4.01,2.41-5.72"/><path class="e" d="M10.6,72.46c-1.16,0-1.49-.38-1.25-1.49,1.53-2.31,2.76-7.83,2.59-11.85,.09-.41,.08-.85,.12-1.27l-.25-.03-2.25-3.32c1.04-2.59,3.11-4.24,5.14-5.12,.82,2.13,3.71,1.46,4.53-.17,1.1,.84,3.72,2.37,4.95,3.13l-.04,3.64c-.32-.09-1.95-.52-2.3-.61,.07,1.37,0,2.72,.23,4.02,.36,2,.93,3.97,1.4,5.95,.44,1.84,.88,3.68,1.31,5.53,.27,1.18-.05,1.57-1.25,1.58-.41,0-.82,.04-1.23,0"/><path class="c" d="M49.52,44.8c-.2-.63-.48-1.23-.73-1.85-.11,.03-.22,.06-.32,.08,.06,.74-.46,2.96-.32,3.68,.3,2.93,.63,4.72,1.23,7.6,.75,3.62,2.62,9.75,3.34,13.37,.22,1.11-.33,1.74-1.45,1.78-.82,.03-1.64,.04-2.45,0l-15.44,.06c-.13-.06-.29-.07-.51-.06-.76,.05-1.52,.02-2.28,0-1.11-.03-1.71-.76-1.5-1.86,.3-1.54,1.97-8.21,2.28-9.75,1.04-5.11,1.82-8.58,1.76-13.14,0-.45,.01-.91,.01-1.37-.27,.2-.37,.4-.45,.61-.21,.57-.23,.56-.4,1.14l-4.32-4.35c.37-1.21,.56-1.6,1.12-2.77,1.75-3.7,4.51-6.18,8.29-7.93,.99,3.12,3.71,4.02,6.87,.09,2.8,.72,4.55,.82,6.59,6.01,.08,.19,1.77,4.81,1.92,5.03l-3.25,3.61Z"/><path class="c" d="M58.01,59.64c.37,7.98,.72,15.97,1.08,23.95,.07,1.58,.99,2.72,2.3,2.86,1.25,.14,2.52-.67,2.81-1.89,.16-.67,.18-1.39,.21-2.08,.24-5.13,.46-10.26,.7-15.38,.01-.31,.06-.63,.21-.94,.07,1.04,.16,2.07,.21,3.11,.2,4.6,.38,9.21,.58,13.81,.02,.44,.06,.88,.14,1.3,.26,1.29,1.36,2.14,2.64,2.08,1.24-.05,2.32-1.07,2.41-2.35,.13-1.83,.23-3.67,.31-5.5,.3-6.32,.59-12.64,.9-18.97"/><path class="e" d="M58.01,59.64c-.02-.33,.04-18.52,.2-19.86-.25,.05-.36,.15-.4,.27-.54,1.66-.95,3.62-1.18,5.32l-3.84-4.17c.13-.19,1.84-8.64,8.59-11.94,.82,2.4,3.92,4.95,3.92,4.95,1.89-.53,3.6-3.64,3.92-5.38,4.45,2.29,8.51,7.67,9.9,12.3l-4.9,2.67c-.25-.8-.89-2.75-1.25-3.53-.12-.25-.27-.49-.5-.91-.06,.33-.1,.42-.09,.5,.49,3.96,.17,19.52,.16,19.8h-14.51Z"/><path class="c" d="M82.51,55.9c.18-.05,.71-.35,.9-.39-.04,.82,.29,6.71,.47,12.42l9.81-.31c.08-1.26,.05-5.46,.04-8.17,0-.15,0-.29,0-.44l.25-1.5,.2,1.01,2.69-1.86c-.26-.63-.98-2.54-1.34-3.15-1.36-2.31-2.58-3.6-4.19-4.28-.45,.84-2.56,3.13-2.56,3.13,0,0-2.17-3.18-2.64-3.24-.47-.06-3.68,2.1-5.29,3.28l1.66,3.5Z"/><path class="b" d="M33.39,22c-.11,3.54,2.89,6.72,6.45,6.82,3.81,.11,6.9-2.75,7.03-6.51,.13-3.7-2.78-6.86-6.42-6.96-3.9-.11-6.94,2.76-7.06,6.65"/><path class="g" d="M65.26,28.54c4.15-.01,7.46-3.31,7.44-7.41-.02-4.12-3.36-7.42-7.47-7.4-4.05,.02-7.36,3.37-7.36,7.44,0,4.07,3.33,7.39,7.39,7.37"/><path class="g" d="M16.96,48.98c2.44-.02,4.44-2.01,4.44-4.42,0-2.48-2.06-4.48-4.58-4.43-2.41,.04-4.35,2.02-4.34,4.41,.01,2.49,2.01,4.46,4.48,4.44"/><path class="b" d="M93.7,44.24c0-2.72-2.15-4.87-4.86-4.88-2.77-.01-4.94,2.14-4.95,4.89,0,2.72,2.21,4.9,4.96,4.89,2.69-.01,4.86-2.2,4.85-4.89"/></g></svg>